<?xml version="1.0" standalone="no"?><!DOCTYPE svg PUBLIC "-//W3C//DTD SVG 1.1//EN" "http://www.w3.org/Graphics/SVG/1.1/DTD/svg11.dtd"><svg width="50" height="50" viewBox="0 0 50 50" version="1.1" xmlns="http://www.w3.org/2000/svg" xmlns:xlink="http://www.w3.org/1999/xlink" style="cursor:pointer;text-align:center;width:150px;perspective-origin:75px 75px;transform-origin:75px 75px;user-select:none;fill:rgb(51, 51, 51);">
    <path style="border-bottom-color:rgb(0, 0, 0);border-left-color:rgb(0, 0, 0);border-right-color:rgb(0, 0, 0);border-top-color:rgb(0, 0, 0);color:rgb(0, 0, 0);cursor:pointer;font-family:&quot;Bitstream Vera Sans&quot;;height:auto;line-height:normal;outline-color:rgb(0, 0, 0);overflow-x:visible;overflow-y:visible;text-decoration:none solid rgb(0, 0, 0);text-decoration-color:rgb(0, 0, 0);width:auto;column-rule-color:rgb(0, 0, 0);perspective-origin:0px 0px;-webkit-text-emphasis-color:rgb(0, 0, 0);-webkit-text-fill-color:rgb(0, 0, 0);-webkit-text-stroke-color:rgb(0, 0, 0);transform-origin:0px 0px;user-select:none;fill:rgb(51, 51, 51);d:path('M 3.8125 2 A 1.0001 1.0001 0 0 0 3 3 L 3 6 A 1.0001 1.0001 0 0 0 3.28125 6.6875 L 19 23.375 L 19 41 A 1.0001 1.0001 0 0 0 19.5 41.8438 L 29.5 47.8438 A 1.0001 1.0001 0 0 0 31 47 L 31 23.375 L 46.5625 6.84375 A 1.0001 1.0001 0 0 0 46.5938 6.8125 L 46.7188 6.6875 A 1.0001 1.0001 0 0 0 46.8438 6.53125 A 1.0001 1.0001 0 0 0 46.9063 6.46875 A 1.0001 1.0001 0 0 0 47 6.0625 A 1.0001 1.0001 0 0 0 47 6 A 1.0001 1.0001 0 0 0 47 5.84375 L 47 3 A 1.0001 1.0001 0 0 0 46 2 L 4 2 A 1.0001 1.0001 0 0 0 3.90625 2 A 1.0001 1.0001 0 0 0 3.8125 2 Z M 5 4 L 45 4 L 45 5.625 L 29.5625 22 L 20.4375 22 L 5 5.625 L 5 4 Z M 21 24 L 29 24 L 29 45.25 L 21 40.4688 L 21 24 Z');caret-color:rgb(0, 0, 0);" d="M 3.8125 2 A 1.0001 1.0001 0 0 0 3 3 L 3 6 A 1.0001 1.0001 0 0 0 3.28125 6.6875 L 19 23.375 L 19 41 A 1.0001 1.0001 0 0 0 19.5 41.84375 L 29.5 47.84375 A 1.0001 1.0001 0 0 0 31 47 L 31 23.375 L 46.5625 6.84375 A 1.0001 1.0001 0 0 0 46.59375 6.8125 L 46.71875 6.6875 A 1.0001 1.0001 0 0 0 46.84375 6.53125 A 1.0001 1.0001 0 0 0 46.90625 6.46875 A 1.0001 1.0001 0 0 0 47 6.0625 A 1.0001 1.0001 0 0 0 47 6 A 1.0001 1.0001 0 0 0 47 5.84375 L 47 3 A 1.0001 1.0001 0 0 0 46 2 L 4 2 A 1.0001 1.0001 0 0 0 3.90625 2 A 1.0001 1.0001 0 0 0 3.8125 2 z M 5 4 L 45 4 L 45 5.625 L 29.5625 22 L 20.4375 22 L 5 5.625 L 5 4 z M 21 24 L 29 24 L 29 45.25 L 21 40.46875 L 21 24 z" color="#000" overflow="visible" enable-background="accumulate" font-family="Bitstream Vera Sans"/>
</svg>