<?xml version="1.0" standalone="no"?><!DOCTYPE svg PUBLIC "-//W3C//DTD SVG 1.1//EN" "http://www.w3.org/Graphics/SVG/1.1/DTD/svg11.dtd"><svg viewBox="0 0 32 32" version="1.1" xmlns="http://www.w3.org/2000/svg" xmlns:xlink="http://www.w3.org/1999/xlink" style="cursor:pointer;text-align:center;width:150px;perspective-origin:75px 75px;transform-origin:75px 75px;user-select:none;fill:rgb(51, 51, 51);">
    <path d="M 16 4 C 15.840947 4 15.688456 4.0236016 15.53125 4.03125 C 10.830934 4.2599313 7 7.8460036 7 12.34375 C 7 15.292858 8.7901466 17.882029 10.46875 19.75 C 12.147353 21.617971 13.8125 22.8125 13.8125 22.8125 L 14.09375 23 L 14.40625 23 L 17.59375 23 L 17.90625 23 L 18.1875 22.8125 C 18.1875 22.8125 19.852647 21.617971 21.53125 19.75 C 23.209853 17.882029 25 15.292858 25 12.34375 C 25 7.8359979 21.15216 4.2453688 16.4375 4.03125 C 16.28886 4.0100352 16.149373 4 16 4 z M 16 6 C 16.272014 6 17.11211 6.3113494 17.78125 7.15625 C 18.45039 8.0011506 19 9.3269059 19 11.21875 C 19 15.533989 16.725125 20.228698 16.34375 21 L 15.65625 21 C 15.274791 20.225944 13 15.515098 13 11.21875 C 13 9.3967139 13.574402 8.0536882 14.25 7.1875 C 14.925598 6.3213118 15.756843 6 16 6 z M 11.90625 7.21875 C 11.366153 8.3092974 11 9.6415424 11 11.21875 C 11 14.102017 11.863628 17.050124 12.6875 19.21875 C 12.439875 18.970664 12.205554 18.704543 11.9375 18.40625 C 10.416103 16.713221 9 14.448642 9 12.34375 C 9 10.240511 10.143657 8.3765345 11.90625 7.21875 z M 20.15625 7.25 C 21.885747 8.4107594 23 10.263563 23 12.34375 C 23 14.448642 21.583897 16.713221 20.0625 18.40625 C 19.799963 18.698404 19.555549 18.943502 19.3125 19.1875 C 20.130619 17.025821 21 14.088493 21 11.21875 C 21 9.6499175 20.668835 8.3281865 20.15625 7.25 z M 14 25 L 14 28 L 18 28 L 18 25 L 14 25 z" style="cursor:pointer;height:auto;overflow-x:visible;overflow-y:visible;text-align:center;width:auto;perspective-origin:0px 0px;transform-origin:0px 0px;user-select:none;fill:rgb(51, 51, 51);d:path('M 16 4 C 15.8409 4 15.6885 4.0236 15.5313 4.03125 C 10.8309 4.25993 7 7.846 7 12.3438 C 7 15.2929 8.79015 17.882 10.4688 19.75 C 12.1474 21.618 13.8125 22.8125 13.8125 22.8125 L 14.0938 23 L 14.4063 23 L 17.5938 23 L 17.9063 23 L 18.1875 22.8125 C 18.1875 22.8125 19.8526 21.618 21.5313 19.75 C 23.2099 17.882 25 15.2929 25 12.3438 C 25 7.836 21.1522 4.24537 16.4375 4.03125 C 16.2889 4.01004 16.1494 4 16 4 Z M 16 6 C 16.272 6 17.1121 6.31135 17.7813 7.15625 C 18.4504 8.00115 19 9.32691 19 11.2188 C 19 15.534 16.7251 20.2287 16.3438 21 L 15.6563 21 C 15.2748 20.2259 13 15.5151 13 11.2188 C 13 9.39671 13.5744 8.05369 14.25 7.1875 C 14.9256 6.32131 15.7568 6 16 6 Z M 11.9063 7.21875 C 11.3662 8.3093 11 9.64154 11 11.2188 C 11 14.102 11.8636 17.0501 12.6875 19.2188 C 12.4399 18.9707 12.2056 18.7045 11.9375 18.4063 C 10.4161 16.7132 9 14.4486 9 12.3438 C 9 10.2405 10.1437 8.37653 11.9063 7.21875 Z M 20.1563 7.25 C 21.8857 8.41076 23 10.2636 23 12.3438 C 23 14.4486 21.5839 16.7132 20.0625 18.4063 C 19.8 18.6984 19.5555 18.9435 19.3125 19.1875 C 20.1306 17.0258 21 14.0885 21 11.2188 C 21 9.64992 20.6688 8.32819 20.1563 7.25 Z M 14 25 L 14 28 L 18 28 L 18 25 L 14 25 Z');"/>
</svg>