<?xml version="1.0" standalone="no"?><!DOCTYPE svg PUBLIC "-//W3C//DTD SVG 1.1//EN" "http://www.w3.org/Graphics/SVG/1.1/DTD/svg11.dtd"><svg viewBox="0 0 50 50" version="1.1" xmlns="http://www.w3.org/2000/svg" xmlns:xlink="http://www.w3.org/1999/xlink" style="cursor:pointer;text-align:center;width:150px;perspective-origin:75px 75px;transform-origin:75px 75px;user-select:none;fill:rgb(51, 51, 51);">
    <path style="border-bottom-color:rgb(0, 0, 0);border-left-color:rgb(0, 0, 0);border-right-color:rgb(0, 0, 0);border-top-color:rgb(0, 0, 0);color:rgb(0, 0, 0);cursor:pointer;font-family:&quot;Bitstream Vera Sans&quot;;height:auto;line-height:normal;outline-color:rgb(0, 0, 0);overflow-x:visible;overflow-y:visible;text-decoration:none solid rgb(0, 0, 0);text-decoration-color:rgb(0, 0, 0);width:auto;column-rule-color:rgb(0, 0, 0);perspective-origin:0px 0px;-webkit-text-emphasis-color:rgb(0, 0, 0);-webkit-text-fill-color:rgb(0, 0, 0);-webkit-text-stroke-color:rgb(0, 0, 0);transform-origin:0px 0px;user-select:none;fill:rgb(51, 51, 51);d:path('M 25 2 C 24.8598 2 24.7278 2.01007 24.5938 2.03125 C 15.404 2.24831 8 9.75977 8 19 C 8 24.8939 11.4768 29.1638 14.7813 32.4688 C 16.4335 34.1212 18.0587 35.5649 19.2188 36.8438 C 20.3788 38.1226 21 39.1847 21 40 A 1.0001 1.0001 0 0 0 22 41 L 23.625 41 A 1.00305 1.00305 0 0 0 24.375 41 L 25.625 41 A 1.00305 1.00305 0 0 0 26.4063 41 L 28 41 A 1.0001 1.0001 0 0 0 29 40 C 29 39.1847 29.6212 38.1226 30.7813 36.8438 C 31.9413 35.5649 33.5665 34.1212 35.2188 32.4688 C 38.5232 29.1638 42 24.8939 42 19 C 42 9.75977 34.596 2.24831 25.4063 2.03125 C 25.2734 2.01041 25.1381 2 25 2 Z M 25 4 C 25.0675 4 25.136 4.00562 25.2188 4.03125 C 25.4669 4.10814 25.7883 4.32731 26.1563 4.8125 C 26.6469 5.45942 27.1319 6.51569 27.5625 7.875 C 28.4237 10.5936 29 14.5258 29 19 C 29 24.4002 28.0506 27.9834 27.0625 31.0625 C 26.1785 33.8173 25.2535 36.2103 25.0625 39 L 24.9375 39 C 24.7506 36.1542 23.8244 33.7543 22.9375 31 C 21.9491 27.9307 21 24.3788 21 19 C 21 14.6669 21.5744 10.7575 22.4375 8 C 22.869 6.62124 23.3804 5.51375 23.875 4.84375 C 24.2459 4.34125 24.5451 4.11152 24.7813 4.03125 C 24.86 4.00449 24.9367 4 25 4 Z M 28.8125 5.4375 C 29.7761 6.12707 30.714 7.04628 31.5625 8.1875 C 33.5579 10.8713 35 14.6636 35 19 C 35 24.2493 32.9057 27.4371 30.6875 30.375 C 29.9104 31.4043 29.0968 32.4003 28.375 33.4375 C 28.5592 32.8746 28.7406 32.301 28.9375 31.6875 C 29.9494 28.5341 31 24.6418 31 19 C 31 14.3612 30.4513 10.2844 29.5 7.28125 C 29.2859 6.60521 29.0685 5.99977 28.8125 5.4375 Z M 21.2188 5.46875 C 20.9556 6.05083 20.7183 6.67737 20.5 7.375 C 19.5506 10.4085 19 14.4971 19 19 C 19 24.6212 20.0509 28.4835 21.0625 31.625 C 21.2651 32.254 21.4361 32.8289 21.625 33.4063 C 20.8996 32.3582 20.0951 31.3453 19.3125 30.3125 C 17.0931 27.3837 15 24.2273 15 19 C 15 14.809 16.4375 11.0039 18.4375 8.28125 C 19.2905 7.12007 20.2501 6.17586 21.2188 5.46875 Z M 17.8438 5.8125 C 17.4834 6.21588 17.1443 6.64203 16.8125 7.09375 C 14.5585 10.1621 13 14.3551 13 19 C 13 24.7727 15.4069 28.4903 17.6875 31.5 C 18.6657 32.7908 19.5978 33.9402 20.3438 35.0938 C 19.1297 33.8071 17.6674 32.4802 16.2188 31.0313 C 13.0232 27.8352 10 24.1061 10 19 C 10 13.2968 13.1675 8.35001 17.8438 5.8125 Z M 32.2813 5.90625 C 36.8831 8.46535 40 13.3521 40 19 C 40 24.1061 36.9768 27.8352 33.7813 31.0313 C 32.3742 32.4385 30.9745 33.7474 29.7813 35 C 30.5081 33.905 31.3808 32.7965 32.3125 31.5625 C 34.5943 28.5404 37 24.7927 37 19 C 37 14.2234 35.4149 10.0379 33.1563 7 C 32.8739 6.62026 32.5837 6.25064 32.2813 5.90625 Z M 21.8125 42 A 1.0001 1.0001 0 0 0 21 43 L 21 46 C 21 47.0931 21.9069 48 23 48 L 27 48 C 28.0931 48 29 47.0931 29 46 L 29 43 A 1.0001 1.0001 0 0 0 28 42 L 22 42 A 1.0001 1.0001 0 0 0 21.9063 42 A 1.0001 1.0001 0 0 0 21.8125 42 Z M 23 44 L 27 44 L 27 46 L 23 46 L 23 44 Z');caret-color:rgb(0, 0, 0);" d="M 25 2 C 24.85979 2 24.72783 2.0100671 24.59375 2.03125 C 15.403988 2.2483067 8 9.7597712 8 19 C 8 24.893939 11.476833 29.163825 14.78125 32.46875 C 16.433458 34.121212 18.058694 35.564892 19.21875 36.84375 C 20.378806 38.122608 21 39.18468 21 40 A 1.0001 1.0001 0 0 0 22 41 L 23.625 41 A 1.0030471 1.0030471 0 0 0 24.375 41 L 25.625 41 A 1.0030471 1.0030471 0 0 0 26.40625 41 L 28 41 A 1.0001 1.0001 0 0 0 29 40 C 29 39.18468 29.621194 38.122608 30.78125 36.84375 C 31.941306 35.564892 33.566542 34.121212 35.21875 32.46875 C 38.523167 29.163825 42 24.893939 42 19 C 42 9.7597712 34.596012 2.2483067 25.40625 2.03125 C 25.273417 2.0104088 25.138112 2 25 2 z M 25 4 C 25.067526 4 25.13602 4.0056184 25.21875 4.03125 C 25.466939 4.1081447 25.788284 4.3273129 26.15625 4.8125 C 26.646872 5.4594161 27.131906 6.5156881 27.5625 7.875 C 28.423689 10.593624 29 14.5258 29 19 C 29 24.400249 28.050581 27.983394 27.0625 31.0625 C 26.178481 33.817322 25.253457 36.210265 25.0625 39 L 24.9375 39 C 24.750626 36.154212 23.824447 33.754302 22.9375 31 C 21.949123 27.930719 21 24.378788 21 19 C 21 14.66688 21.574435 10.757524 22.4375 8 C 22.869033 6.621238 23.38045 5.5137515 23.875 4.84375 C 24.245912 4.3412489 24.545131 4.1115231 24.78125 4.03125 C 24.859956 4.0044923 24.93667 4 25 4 z M 28.8125 5.4375 C 29.776054 6.127069 30.714027 7.0462796 31.5625 8.1875 C 33.557882 10.871346 35 14.663552 35 19 C 35 24.24931 32.905703 27.437113 30.6875 30.375 C 29.91037 31.404265 29.096789 32.400281 28.375 33.4375 C 28.559159 32.874637 28.740625 32.301013 28.9375 31.6875 C 29.949419 28.534106 31 24.641751 31 19 C 31 14.3612 30.451311 10.284376 29.5 7.28125 C 29.28585 6.6052144 29.068502 5.9997733 28.8125 5.4375 z M 21.21875 5.46875 C 20.9556 6.0508258 20.718349 6.6773676 20.5 7.375 C 19.550565 10.408476 19 14.49712 19 19 C 19 24.621212 20.050877 28.483531 21.0625 31.625 C 21.265052 32.253999 21.436067 32.828864 21.625 33.40625 C 20.89963 32.358177 20.095146 31.345332 19.3125 30.3125 C 17.09313 27.383671 15 24.227273 15 19 C 15 14.80895 16.437489 11.003879 18.4375 8.28125 C 19.290486 7.1200735 20.250098 6.1758605 21.21875 5.46875 z M 17.84375 5.8125 C 17.483445 6.2158783 17.144331 6.6420265 16.8125 7.09375 C 14.558511 10.162121 13 14.35505 13 19 C 13 24.772727 15.40687 28.490329 17.6875 31.5 C 18.665651 32.790834 19.597798 33.94022 20.34375 35.09375 C 19.129697 33.807089 17.667438 32.480162 16.21875 31.03125 C 13.023167 27.835175 10 24.106061 10 19 C 10 13.296803 13.167509 8.3500128 17.84375 5.8125 z M 32.28125 5.90625 C 36.883066 8.4653481 40 13.352081 40 19 C 40 24.106061 36.976833 27.835175 33.78125 31.03125 C 32.374197 32.43852 30.974525 33.747434 29.78125 35 C 30.508083 33.904972 31.380779 32.796513 32.3125 31.5625 C 34.594297 28.540387 37 24.79269 37 19 C 37 14.223448 35.414868 10.037904 33.15625 7 C 32.873923 6.6202619 32.583702 6.250638 32.28125 5.90625 z M 21.8125 42 A 1.0001 1.0001 0 0 0 21 43 L 21 46 C 21 47.093063 21.906937 48 23 48 L 27 48 C 28.093063 48 29 47.093063 29 46 L 29 43 A 1.0001 1.0001 0 0 0 28 42 L 22 42 A 1.0001 1.0001 0 0 0 21.90625 42 A 1.0001 1.0001 0 0 0 21.8125 42 z M 23 44 L 27 44 L 27 46 L 23 46 L 23 44 z" color="#000" overflow="visible" font-family="Bitstream Vera Sans"/>
</svg>