<?xml version="1.0" standalone="no"?><!DOCTYPE svg PUBLIC "-//W3C//DTD SVG 1.1//EN" "http://www.w3.org/Graphics/SVG/1.1/DTD/svg11.dtd"><svg viewBox="1 -1 50 50" version="1.1" xmlns="http://www.w3.org/2000/svg" xmlns:xlink="http://www.w3.org/1999/xlink" style="cursor:pointer;text-align:center;width:150px;perspective-origin:75px 75px;transform-origin:75px 75px;user-select:none;fill:rgb(51, 51, 51);">
    <path d="M 25 2 C 15.6 2 8 9.6 8 19 C 8 26 12.7875 30.6125 16.6875 34.3125 C 18.9875 36.5125 21 38.4 21 40 C 21 40.6 21.4 41 22 41 L 28 41 C 28.6 41 29 40.6 29 40 C 29 38.4 31.0125 36.5125 33.3125 34.3125 C 37.2125 30.6125 42 26 42 19 C 42 9.6 34.4 2 25 2 z M 25 3 C 30 3 36 9.9 36 19 C 36 29.5 27.89375 32.6 27.09375 39 L 25.0625 39 C 25.570625 33.530809 30 29.371237 30 19 C 30 9.9 27.7 3 25 3 z M 25 3 C 22.3 3 20 10.2 20 19 C 20 29.388654 24.44179 33.368516 24.9375 39 L 22.90625 39 C 22.10625 32.5 14 29.5 14 19 C 14 10.2 20 3 25 3 z M 22 42 C 21.4 42 21 42.4 21 43 L 21 46 C 21 47.2 21.8 48 23 48 L 27 48 C 28.2 48 29 47.2 29 46 L 29 43 C 29 42.4 28.6 42 28 42 L 22 42 z" transform="translate(1 -1)" style="cursor:pointer;height:auto;overflow-x:visible;overflow-y:visible;text-align:center;width:auto;perspective-origin:0px 0px;transform:matrix(1, 0, 0, 1, 1, -1);transform-origin:0px 0px;user-select:none;fill:rgb(51, 51, 51);d:path('M 25 2 C 15.6 2 8 9.6 8 19 C 8 26 12.7875 30.6125 16.6875 34.3125 C 18.9875 36.5125 21 38.4 21 40 C 21 40.6 21.4 41 22 41 L 28 41 C 28.6 41 29 40.6 29 40 C 29 38.4 31.0125 36.5125 33.3125 34.3125 C 37.2125 30.6125 42 26 42 19 C 42 9.6 34.4 2 25 2 Z M 25 3 C 30 3 36 9.9 36 19 C 36 29.5 27.8937 32.6 27.0938 39 L 25.0625 39 C 25.5706 33.5308 30 29.3712 30 19 C 30 9.9 27.7 3 25 3 Z M 25 3 C 22.3 3 20 10.2 20 19 C 20 29.3887 24.4418 33.3685 24.9375 39 L 22.9063 39 C 22.1063 32.5 14 29.5 14 19 C 14 10.2 20 3 25 3 Z M 22 42 C 21.4 42 21 42.4 21 43 L 21 46 C 21 47.2 21.8 48 23 48 L 27 48 C 28.2 48 29 47.2 29 46 L 29 43 C 29 42.4 28.6 42 28 42 L 22 42 Z');"/>
</svg>