<?xml version="1.0" standalone="no"?><!DOCTYPE svg PUBLIC "-//W3C//DTD SVG 1.1//EN" "http://www.w3.org/Graphics/SVG/1.1/DTD/svg11.dtd"><svg viewBox="0 0 24 24" version="1.1" xmlns="http://www.w3.org/2000/svg" xmlns:xlink="http://www.w3.org/1999/xlink" style="cursor:pointer;text-align:center;width:150px;perspective-origin:75px 75px;transform-origin:75px 75px;user-select:none;fill:rgb(51, 51, 51);">
    <path d="M 12 2 C 8.1406369 2 5 5.1838534 5 9.0625 C 5 11.495094 6.2407501 13.630403 7.40625 15.1875 C 8.5717499 16.744597 9.75 17.75 9.75 17.75 L 10.03125 18 L 10.375 18 L 11 18 L 13 18 L 13.59375 18 L 13.96875 18 L 14.25 17.75 C 14.25 17.75 15.425607 16.744581 16.59375 15.1875 C 17.761893 13.630419 19 11.495895 19 9.0625 C 19 5.1838534 15.859363 2 12 2 z M 10.0625 4.40625 C 10.071478 4.4024207 10.084745 4.4100277 10.09375 4.40625 C 9.48125 5.33 9 6.709 9 8.5 C 9 11.681446 10.010337 13.867033 10.59375 15.78125 C 10.294697 15.509549 9.7522653 15.00502 9 14 C 7.9704999 12.624597 7 10.791906 7 9.0625 C 7 6.9569849 8.2669104 5.1721047 10.0625 4.40625 z M 13.9375 4.40625 C 15.73309 5.1721047 17 6.9569849 17 9.0625 C 17 10.791105 16.031857 12.624581 15 14 C 14.275912 14.965176 13.7559 15.464907 13.4375 15.75 C 14.023742 13.857233 15 11.659668 15 8.5 C 15 6.6889951 14.532683 5.3159223 13.9375 4.40625 z M 10 19 L 10 21 C 10 21.552 10.448 22 11 22 L 13 22 C 13.552 22 14 21.552 14 21 L 14 19 L 10 19 z" style="cursor:pointer;height:auto;overflow-x:visible;overflow-y:visible;text-align:center;width:auto;perspective-origin:0px 0px;transform-origin:0px 0px;user-select:none;fill:rgb(51, 51, 51);d:path('M 12 2 C 8.14064 2 5 5.18385 5 9.0625 C 5 11.4951 6.24075 13.6304 7.40625 15.1875 C 8.57175 16.7446 9.75 17.75 9.75 17.75 L 10.0313 18 L 10.375 18 L 11 18 L 13 18 L 13.5938 18 L 13.9688 18 L 14.25 17.75 C 14.25 17.75 15.4256 16.7446 16.5938 15.1875 C 17.7619 13.6304 19 11.4959 19 9.0625 C 19 5.18385 15.8594 2 12 2 Z M 10.0625 4.40625 C 10.0715 4.40242 10.0847 4.41003 10.0938 4.40625 C 9.48125 5.33 9 6.709 9 8.5 C 9 11.6814 10.0103 13.867 10.5938 15.7813 C 10.2947 15.5095 9.75226 15.005 9 14 C 7.9705 12.6246 7 10.7919 7 9.0625 C 7 6.95698 8.26691 5.1721 10.0625 4.40625 Z M 13.9375 4.40625 C 15.7331 5.1721 17 6.95698 17 9.0625 C 17 10.7911 16.0319 12.6246 15 14 C 14.2759 14.9652 13.7559 15.4649 13.4375 15.75 C 14.0237 13.8572 15 11.6597 15 8.5 C 15 6.689 14.5327 5.31592 13.9375 4.40625 Z M 10 19 L 10 21 C 10 21.552 10.448 22 11 22 L 13 22 C 13.552 22 14 21.552 14 21 L 14 19 L 10 19 Z');"/>
</svg>