<?xml version="1.0" standalone="no"?><!DOCTYPE svg PUBLIC "-//W3C//DTD SVG 1.1//EN" "http://www.w3.org/Graphics/SVG/1.1/DTD/svg11.dtd"><svg version="1.1" viewBox="0 0 24 24" enable-background="new 0 0 24 24" xmlns="http://www.w3.org/2000/svg" xmlns:xlink="http://www.w3.org/1999/xlink" style="cursor:pointer;text-align:center;width:150px;perspective-origin:75px 75px;transform-origin:75px 75px;user-select:none;fill:rgb(51, 51, 51);">
    <path d="M 6 2 L 6 4 L 5 4 C 3.9 4 3 4.9 3 6 L 3 20 C 3 21.1 3.9 22 5 22 L 19 22 C 20.1 22 21 21.1 21 20 L 21 6 C 21 4.9 20.1 4 19 4 L 18 4 L 18 2 L 16 2 L 16 4 L 8 4 L 8 2 L 6 2 z M 5 9 L 19 9 L 19 20 L 5 20 L 5 9 z M 12 13 L 12 18 L 17 18 L 17 13 L 12 13 z" fill-rule="evenodd" style="cursor:pointer;height:auto;overflow-x:visible;overflow-y:visible;text-align:center;width:auto;perspective-origin:0px 0px;transform-origin:0px 0px;user-select:none;fill:rgb(51, 51, 51);fill-rule:evenodd;d:path('M 6 2 L 6 4 L 5 4 C 3.9 4 3 4.9 3 6 L 3 20 C 3 21.1 3.9 22 5 22 L 19 22 C 20.1 22 21 21.1 21 20 L 21 6 C 21 4.9 20.1 4 19 4 L 18 4 L 18 2 L 16 2 L 16 4 L 8 4 L 8 2 L 6 2 Z M 5 9 L 19 9 L 19 20 L 5 20 L 5 9 Z M 12 13 L 12 18 L 17 18 L 17 13 L 12 13 Z');"/>
</svg>