<?xml version="1.0" standalone="no"?><!DOCTYPE svg PUBLIC "-//W3C//DTD SVG 1.1//EN" "http://www.w3.org/Graphics/SVG/1.1/DTD/svg11.dtd"><svg viewBox="0 0 50 50" version="1.1" xmlns="http://www.w3.org/2000/svg" xmlns:xlink="http://www.w3.org/1999/xlink" style="cursor:pointer;text-align:center;width:150px;perspective-origin:75px 75px;transform-origin:75px 75px;user-select:none;fill:rgb(51, 51, 51);">
    <path d="M 12 0 C 10.906937 0 10 0.9069372 10 2 L 10 4 L 4 4 C 2.841 4 2 4.841 2 6 L 2 13 L 48 13 L 48 6 C 48 4.841 47.159 4 46 4 L 40 4 L 40 2 C 40 0.9069372 39.093063 0 38 0 L 36 0 C 34.906937 0 34 0.9069372 34 2 L 34 4 L 16 4 L 16 2 C 16 0.9069372 15.093063 0 14 0 L 12 0 z M 12 2 L 14 2 L 14 8 L 12 8 L 12 2 z M 36 2 L 38 2 L 38 8 L 36 8 L 36 2 z M 2 15 L 2 46 C 2 47.159 2.841 48 4 48 L 46 48 C 47.159 48 48 47.159 48 46 L 48 15 L 2 15 z M 12 21 L 17 21 L 17 26 L 12 26 L 12 21 z M 19 21 L 24 21 L 24 26 L 19 26 L 19 21 z M 26 21 L 31 21 L 31 26 L 26 26 L 26 21 z M 33 21 L 38 21 L 38 26 L 33 26 L 33 21 z M 12 28 L 17 28 L 17 33 L 12 33 L 12 28 z M 19 28 L 24 28 L 24 33 L 19 33 L 19 28 z M 26 28 L 31 28 L 31 33 L 26 33 L 26 28 z M 33 28 L 38 28 L 38 33 L 33 33 L 33 28 z M 12 35 L 17 35 L 17 40 L 12 40 L 12 35 z M 19 35 L 24 35 L 24 40 L 19 40 L 19 35 z M 26 35 L 31 35 L 31 40 L 26 40 L 26 35 z M 33 35 L 38 35 L 38 40 L 33 40 L 33 35 z" style="cursor:pointer;height:auto;overflow-x:visible;overflow-y:visible;text-align:center;width:auto;perspective-origin:0px 0px;transform-origin:0px 0px;user-select:none;fill:rgb(51, 51, 51);d:path('M 12 0 C 10.9069 0 10 0.906937 10 2 L 10 4 L 4 4 C 2.841 4 2 4.841 2 6 L 2 13 L 48 13 L 48 6 C 48 4.841 47.159 4 46 4 L 40 4 L 40 2 C 40 0.906937 39.0931 0 38 0 L 36 0 C 34.9069 0 34 0.906937 34 2 L 34 4 L 16 4 L 16 2 C 16 0.906937 15.0931 0 14 0 L 12 0 Z M 12 2 L 14 2 L 14 8 L 12 8 L 12 2 Z M 36 2 L 38 2 L 38 8 L 36 8 L 36 2 Z M 2 15 L 2 46 C 2 47.159 2.841 48 4 48 L 46 48 C 47.159 48 48 47.159 48 46 L 48 15 L 2 15 Z M 12 21 L 17 21 L 17 26 L 12 26 L 12 21 Z M 19 21 L 24 21 L 24 26 L 19 26 L 19 21 Z M 26 21 L 31 21 L 31 26 L 26 26 L 26 21 Z M 33 21 L 38 21 L 38 26 L 33 26 L 33 21 Z M 12 28 L 17 28 L 17 33 L 12 33 L 12 28 Z M 19 28 L 24 28 L 24 33 L 19 33 L 19 28 Z M 26 28 L 31 28 L 31 33 L 26 33 L 26 28 Z M 33 28 L 38 28 L 38 33 L 33 33 L 33 28 Z M 12 35 L 17 35 L 17 40 L 12 40 L 12 35 Z M 19 35 L 24 35 L 24 40 L 19 40 L 19 35 Z M 26 35 L 31 35 L 31 40 L 26 40 L 26 35 Z M 33 35 L 38 35 L 38 40 L 33 40 L 33 35 Z');"/>
</svg>